<svg width="512" height="512" xmlns="http://www.w3.org/2000/svg">

 <g>
  <title>background</title>
  <rect fill="none" id="canvas_background" height="402" width="582" y="-1" x="-1"/>
 </g>
 <g>
  <title>Layer 1</title>
  <path fill="#4494a6" id="svg_2" fill-rule="evenodd" clip-rule="evenodd" d="m247.638,369.839l0.674,0.065l0.017,0l0.147,0.017l0.148,0.017l0.016,0l0.493,0.033l0.083,0.016l0.082,0l0.165,0.017l0.049,0l0.115,0.017l0.164,0.017l0.017,0l0.147,0l0.148,0.017l0,0l0.164,0.016l0.131,0l0.033,0.017l0.165,0.017l0.082,0l0.083,0l0.164,0.017l0.049,0l0.115,0.017l0.148,0l0.033,0.016l0.131,0l0.148,0.018l0.016,0l0.165,0.016l0.115,0l0.049,0l0.164,0.017l0.083,0l0.066,0.017l0.164,0l0.049,0.017l0.115,0l0.164,0.017l0.017,0l0.148,0.016l0.131,0l0.017,0l0.164,0.017l0.115,0l0.05,0l0.164,0.017l0.066,0l0.098,0.017l0.148,0l0.049,0.017l0.115,0l0.164,0.016l0,0l0.164,0l0.115,0.017l0.034,0l0.164,0l0.098,0.017l0.066,0l0.165,0.017l0.065,0l0.099,0l0.147,0.017l0.034,0l0.131,0l0.164,0.016l0.164,0l0.132,0.017l0.017,0l0.164,0.017l0.098,0l0.066,0l0.164,0.017l0.066,0l0.099,0l0.147,0.017l0.049,0l0.115,0l0.165,0.016l0,0l0.164,0l0.132,0.018l0.032,0l0.164,0l0.099,0l0.066,0.016l0.147,0l0.082,0l0.082,0.017l0.181,0l0.017,0l0.148,0.017l0.147,0l0.033,0l0.18,0.016l0.082,0l0.083,0l0.181,0l0.032,0l0.148,0.018l0.147,0l0.017,0l0.181,0.016l0.099,0l0.065,0l0.181,0.018l0.05,0l0.131,0l0.164,0l0.017,0l0.164,0.016l0.115,0l0.066,0l0.181,0.017l0.049,0l0.132,0l0.477,0.017l0.049,0l0.181,0.017l0.065,0l0.115,0l0.346,0.017l0.147,0l0.033,0l0.263,0l0.098,0.016l0.181,0l0.034,0l1.215,0.033l0.017,0l0.559,0.017l0.05,0l0.131,0l0.493,0.017l0.05,0l0.903,0.016l0.032,0l0.197,0l0.559,0.017l0.181,0l0.017,0l0.181,0l0.132,0l0.065,0l0.196,0.017l0.051,0l0.13,0l0.97,0l0.197,0.017l0.033,0l0.164,0l0.164,0l0.033,0l0.114,0l0.1,0l0.081,0c2.169,-0.017 4.189,-0.033 6.129,-0.099l1.527,-0.049l-0.082,-0.1l-0.624,-0.723l0,0l-0.625,-0.706l0,0l-0.624,-0.706l0,0l-0.624,-0.724l0,0l-0.608,-0.706l-0.016,0l-0.608,-0.706l-0.017,-0.017l-0.607,-0.707l-0.016,0l-0.608,-0.706l0,-0.017l-0.608,-0.689l-0.017,-0.017l-0.985,-1.134l-0.246,-0.279l0,-0.016l-0.608,-0.69l-0.017,-0.017l-0.607,-0.707l-0.017,-0.016l-0.591,-0.69l-0.017,-0.017l-0.608,-0.689l-0.017,-0.033l-0.591,-0.689l-0.017,-0.018l-0.607,-0.689l-0.017,-0.033l-0.592,-0.689l-0.017,-0.017l-0.591,-0.69l-0.033,-0.032l-0.591,-0.674l-0.017,-0.032l-0.592,-0.69l-0.033,-0.033l-0.574,-0.673l-0.033,-0.033l-0.591,-0.689l-0.017,-0.033l-0.592,-0.674l-0.033,-0.033l-0.574,-0.689l-0.034,-0.033l-0.574,-0.674l-0.032,-0.032l-0.592,-0.69l-0.033,-0.033l-0.575,-0.673l-0.033,-0.032l-0.574,-0.691l-0.032,-0.032l-0.132,-0.165l-1.052,-1.231l-0.033,-0.032l-0.574,-0.674l-0.033,-0.05l-0.575,-0.657l-0.033,-0.049l-0.574,-0.674l-0.049,-0.049l-0.559,-0.674l-0.054,-0.057l-0.559,-0.674l-0.049,-0.049l-0.559,-0.657l-0.049,-0.065l-0.558,-0.657l-0.049,-0.05l-0.559,-0.674l-0.049,-0.049l-0.559,-0.656l-0.049,-0.05l-1.167,-1.38l-0.049,-0.066l-0.558,-0.656l-0.05,-0.05l-0.558,-0.657l-0.049,-0.065l-0.542,-0.657l-0.066,-0.049l-0.542,-0.658l-0.066,-0.065l-0.542,-0.657l-0.049,-0.065l-0.559,-0.641l-0.049,-0.065l-0.558,-0.657l-0.05,-0.065l-0.558,-0.641l-0.049,-0.082l-0.542,-0.642l-0.066,-0.065l-0.542,-0.657l-0.065,-0.065l-0.542,-0.641l-0.066,-0.066l-0.542,-0.656l-0.066,-0.066l-0.525,-0.641l-0.066,-0.082l-0.542,-0.641l-0.066,-0.066l-0.542,-0.641l-0.065,-0.082l-0.542,-0.641l-0.066,-0.082l-0.525,-0.624l-0.083,-0.083l-0.525,-0.64l-0.674,-0.789l-0.542,-0.641l-0.066,-0.082l-0.542,-0.641l-0.066,-0.082l-0.525,-0.624l-0.082,-0.082l-17.135,-20.289l-0.017,0l-9.562,1.625c-0.739,0.165 -1.528,-0.098 -2.037,-0.722l-20.125,-25.53l-1.298,-0.115c-3.056,3.565 -6.21,7.213 -9.217,10.613c-3.367,3.762 -6.801,7.491 -10.202,10.925c-0.936,0.937 -1.741,1.676 -2.415,2.267c0.591,0.92 1.232,1.841 1.922,2.777c0.969,1.314 2.021,2.611 3.187,3.893l0.132,0.066l7.935,0.607c0.476,0.049 0.953,0.264 1.314,0.641l14.703,15.771l7.032,-1.002c0.607,-0.082 1.249,0.099 1.708,0.559c13.881,13.781 28.864,30.16 43.288,42.909m-72.022,-202.497c4.698,0 8.969,1.988 12.042,5.191c3.072,3.188 4.961,7.573 4.961,12.42c0,4.846 -1.89,9.232 -4.961,12.42c-3.073,3.203 -7.344,5.191 -12.042,5.191c-4.699,0 -8.954,-1.988 -12.043,-5.191c-3.055,-3.188 -4.945,-7.59 -4.945,-12.42s1.89,-9.232 4.945,-12.42c3.089,-3.203 7.344,-5.191 12.043,-5.191zm-7.722,96.238l-0.033,-0.05l-0.017,-0.033l-0.017,-0.049c-1.15,-2.152 -2.234,-4.305 -3.335,-6.474c-4.468,-8.854 -8.904,-17.627 -16.905,-25.365l-1.675,-1.626c-1.578,-1.544 -2.284,-2.251 -2.547,-2.268c-0.247,-0.017 -0.985,0.395 -2.316,1.118c-1.002,0.558 -2.267,1.264 -3.877,2.053c-8.001,4.059 -15.13,7.804 -20.815,12.748c-5.585,4.848 -9.89,10.926 -12.436,19.764c-2.448,8.494 -5.274,15.213 -8.707,21.57c-3.385,6.276 -7.377,12.256 -12.158,19.304c-1.725,2.612 -3.63,5.372 -5.207,8.067c-7.919,12.502 -15.049,17.939 -22.425,23.541l-0.131,0.099c-4.945,3.763 -10.005,7.591 -15.459,13.767l-0.083,0.115c-3.68,4.174 -6.44,7.328 -8.723,10.613c-1.824,2.629 -3.401,5.438 -5.027,9.068l5.421,-0.246c3.039,-0.115 5.914,-0.181 8.707,-0.181c16.905,0.017 33.711,0.673 50.551,1.33c20.601,0.789 41.235,1.594 61.968,1.2l5.585,-0.099c4.502,-0.05 9.069,-0.132 13.521,-0.411c8.33,-0.543 14.835,-1.363 20.782,-2.119c12.667,-1.594 22.869,-2.892 42.041,-0.575c2.25,0.263 4.354,0.509 6.358,0.723c-13.16,-12.157 -26.072,-26.121 -38.707,-38.673l-7.08,1.02c-0.723,0.098 -1.396,-0.197 -1.823,-0.707l-14.819,-15.887l-7.311,-0.559l-0.493,-0.114l-0.723,-0.247c-0.328,-0.131 -0.608,-0.279 -0.854,-0.443c-0.181,-0.115 -0.328,-0.263 -0.46,-0.41c-1.297,-1.43 -2.48,-2.892 -3.564,-4.371c-1.068,-1.445 -2.07,-2.957 -3.04,-4.484c-0.525,-0.871 -0.345,-1.988 0.427,-2.612l0.099,-0.082c0.739,-0.624 1.856,-1.544 3.384,-3.088c3.286,-3.303 6.67,-6.982 10.038,-10.777c2.546,-2.858 4.978,-5.668 7.31,-8.362l-4.682,-0.443c-0.525,-0.049 -1.035,-0.296 -1.396,-0.739c-3.826,-4.799 -6.735,-9.694 -9.347,-14.606zm28.52,-103.172c0.772,-0.805 2.037,-0.82 2.842,-0.049c0.789,0.772 0.821,2.037 0.049,2.842l-5.06,5.258c-0.772,0.805 -2.037,0.821 -2.842,0.065c-0.806,-0.772 -0.821,-2.054 -0.049,-2.858l5.06,-5.258zm10.662,22.524c1.101,0 2.021,0.904 2.021,2.021s-0.919,2.02 -2.021,2.02l-7.163,0c-1.117,0 -2.021,-0.902 -2.021,-2.02s0.903,-2.021 2.021,-2.021l7.163,0zm-7.771,23.772c0.772,0.806 0.74,2.087 -0.049,2.858c-0.805,0.756 -2.07,0.739 -2.842,-0.065l-5.06,-5.257c-0.772,-0.806 -0.756,-2.087 0.049,-2.859c0.805,-0.755 2.07,-0.738 2.842,0.066l5.06,5.257zm-21.669,10.991c0,1.117 -0.903,2.02 -2.021,2.02c-1.101,0 -2.021,-0.902 -2.021,-2.02l0,-7.442c0,-1.118 0.92,-2.021 2.021,-2.021c1.117,0 2.021,0.902 2.021,2.021l0,7.442zm-22.803,-8.198c-0.772,0.805 -2.038,0.821 -2.842,0.065c-0.806,-0.771 -0.822,-2.053 -0.05,-2.858l5.044,-5.257c0.772,-0.805 2.054,-0.821 2.859,-0.066c0.789,0.772 0.821,2.054 0.049,2.859l-5.06,5.257zm-10.662,-22.524c-1.117,0 -2.021,-0.902 -2.021,-2.02s0.904,-2.021 2.021,-2.021l7.163,0c1.1,0 2.004,0.904 2.004,2.021s-0.904,2.02 -2.004,2.02l-7.163,0zm7.77,-23.772c-0.772,-0.805 -0.755,-2.069 0.05,-2.842c0.804,-0.771 2.07,-0.756 2.842,0.049l5.06,5.258c0.772,0.805 0.74,2.086 -0.049,2.858c-0.805,0.756 -2.086,0.739 -2.859,-0.065l-5.044,-5.258zm21.653,-10.99c0,-1.117 0.92,-2.021 2.021,-2.021c1.117,0 2.021,0.903 2.021,2.021l0,7.459c0,1.1 -0.903,2.02 -2.021,2.02c-1.101,0 -2.021,-0.92 -2.021,-2.02l0,-7.459zm109.743,218.646l15.509,0c12.469,0 26.762,-2.087 40.841,-4.123c20.93,-3.057 41.433,-6.029 55.774,-2.137l0.132,0.033l0.164,0.05c-0.985,-2.087 -1.84,-4.173 -2.678,-6.228c-2.448,-5.996 -4.829,-11.811 -9.791,-15.984c-2.202,-1.855 -7.688,-5.322 -14.358,-9.528c-15.525,-9.824 -37.359,-23.624 -41.68,-32.446c-2.07,-4.238 -3.499,-8.017 -4.78,-11.418c-3.581,-9.479 -5.931,-15.689 -18.039,-17.627c-2.711,-0.428 -6.062,-3.039 -9.331,-6.391c-4.912,-5.012 -9.907,-11.813 -11.96,-14.818c-1.791,-2.613 -3.303,-4.995 -4.617,-7.049c-4.911,-7.721 -6.899,-10.842 -18.728,-17.035c-0.985,-0.51 -1.364,-1.727 -0.854,-2.712c0.509,-0.985 1.726,-1.363 2.711,-0.854c12.781,6.703 14.934,10.071 20.272,18.449c1.216,1.923 2.628,4.141 4.534,6.934c1.988,2.908 6.802,9.463 11.517,14.26c2.743,2.81 5.355,4.978 7.081,5.24c14.44,2.316 17.103,9.381 21.176,20.191c1.265,3.352 2.679,7.08 4.634,11.072c3.811,7.771 25.086,21.226 40.217,30.787c6.768,4.288 12.338,7.804 14.785,9.857c5.75,4.83 8.313,11.089 10.957,17.562c1.232,3.039 2.498,6.128 4.075,9.02c11.977,2.71 19.369,2.431 30.441,2.036c2.646,-0.098 5.487,-0.213 8.756,-0.278c9.924,-0.229 18.828,0.673 27.667,1.593c6.013,0.625 12.008,1.232 18.235,1.479c-4.847,-6.769 -7.837,-14.063 -10.745,-21.21c-3.942,-9.627 -7.754,-18.975 -15.853,-25.775c-9.94,-8.346 -20.126,-12.075 -29.638,-15.559c-16.855,-6.177 -31.739,-11.615 -40.595,-39.148l-0.099,-0.264c-2.365,-8.739 -4.879,-7.836 -7.376,-6.932c-3.681,1.33 -7.36,2.661 -10.694,-4.157c-2.58,-5.29 -4.601,-9.874 -6.572,-14.325c-3.598,-8.198 -7.031,-16.002 -12.502,-25.07c-4.419,-6.686 -7.212,-6.719 -11.5,-6.785c-1.84,-0.016 -3.927,-0.049 -6.44,-0.443c-4.008,-0.641 -9.084,-4.648 -14.128,-9.791c-7.705,-7.886 -15.559,-18.564 -18.795,-23.313c-2.874,-4.189 -5.224,-7.885 -7.277,-11.105c-7.722,-12.124 -10.958,-17.184 -28.733,-26.663c-4.797,5.224 -10.268,10.005 -15.755,14.786c-10.53,9.166 -21.077,18.383 -26.285,30.441c-6.834,15.887 -12.782,27.271 -19.945,38.18c-7.163,10.893 -15.458,21.209 -27.025,34.992c-1.61,1.906 -2.907,3.286 -3.926,4.288c2.235,4.107 4.699,8.165 7.739,12.06l7.623,0.705l0.032,0l0.034,0l0.032,0.018l0.017,0l3.187,0.295c0.575,0.049 1.084,0.329 1.413,0.756l19.911,25.251l9.626,-1.627l0.034,-0.017l0.049,0l0.034,0l0.032,-0.016l0.033,0l0,0l0.033,0l0.049,0l0.033,0l0.032,0l0.033,0l0.033,0l0.049,0l0.032,0l0.033,0l0.033,0.016l0,0l0.033,0l0,0l0.033,0l0,0l0.033,0l0,0l0.049,0.017l0,0l0.032,0l0,0l0.033,0.017l0,0l0.033,0l0,0l0.033,0l0,0.017l0.033,0l0,0l0.033,0.017l0,0l0.032,0l0,0l0.034,0.016l0,0l0.032,0l0,0.017l0.033,0l0,0l0.033,0.017l0,0l0.032,0.017l0,0l0.034,0l0,0.017l0.098,0.033l0,0l0.033,0.016l0,0l0.016,0.017l0.017,0l0.017,0.017l0,0l0.032,0.017l0,0l0.034,0.017l0,0l0.049,0.032l0.017,0l0.016,0.017l0,0.017l0.033,0.017l0,0l0,0l0.049,0.032l0.017,0l0.016,0.017l0,0l0.033,0.017l0,0.017l0.016,0.016l0,0l0.033,0.017l0,0l0.033,0.033l0,0l0,0.017l0.017,0l0,0l0.017,0.016l0.017,0l0,0.018l0.016,0.016l0,0l0.034,0.017l0,0.017l0.016,0.016l0,0l0.017,0.018l0.017,0.016l0.017,0.018l0,0l0.016,0.016l0,0.017l0.033,0.017l0,0l0.017,0.033l0,0l0.016,0.016l0,0.017l0.017,0.017l0.017,0l0.016,0.033l0,0l0.329,0.377l0,0.017l0.575,0.674l0.083,0.082l0,0.017l0.083,0.082l0.558,0.657l0,0.017l0.313,0.361l0.017,0.016l0.624,0.724l0,0.017l0.313,0.345l0,0.017l1.216,1.429l0.016,0.017l2.054,2.432l0.017,0.017l0.854,1.002l0,0.017l0.838,0.985l0.017,0.017l2.99,3.531l0,0l1.051,1.25l0.017,0.016l1.035,1.216l0.016,0.017l0.229,0.296l0.017,0.017l1.298,1.527l0.231,0.263l0.032,0.05l0.213,0.246l0.033,0.049l0.213,0.264l0.049,0.033l0.214,0.262l0.032,0.05l0.214,0.247l0.049,0.049l0.213,0.246l0.033,0.066l0.213,0.229l0.049,0.065l0.198,0.247l0.049,0.049l0.198,0.247l0.065,0.065l0.443,0.525l0.066,0.082l0.181,0.214l0.066,0.082l0.181,0.213l0.083,0.082l0.542,0.642l0.066,0.082l0.607,0.723l0.542,0.641l0.065,0.083l0.542,0.641l0.066,0.065l0.542,0.641l0.066,0.082l0.542,0.641l0.066,0.083l0.542,0.64l0.065,0.082l0.542,0.642l0.05,0.082l0.558,0.641l0.049,0.065l0.559,0.657l0.065,0.065l0.542,0.657l0.049,0.066l0.559,0.64l0.049,0.083l0.558,0.641l0.05,0.065l0.558,0.657l0.049,0.065l0.559,0.657l0.049,0.065l0.559,0.657l0.049,0.066l0.559,0.641l0.049,0.065l0.558,0.657l0.05,0.065l0.558,0.657l0.049,0.065l0.559,0.657l0.049,0.066l0.559,0.656l0.049,0.05l0.559,0.657l0.049,0.065l0.558,0.657l0.05,0.049l0.558,0.674l0.049,0.049l0.559,0.658l0.049,0.065l0.559,0.657l0.049,0.049l0.574,0.674l0.034,0.049l0.574,0.658l0.033,0.065l0.575,0.657l0.032,0.049l0.575,0.674l0.033,0.049l0.575,0.658l0.032,0.049l0.575,0.673l0.033,0.05l0.574,0.674l0.05,0.032l0.575,0.673l0.032,0.051l0.576,0.673l0.032,0.032l0.574,0.674l0.033,0.05l0.575,0.673l0.033,0.033l0.574,0.674l0.034,0.033l0.574,0.689l0.032,0.033l0.592,0.674l0.017,0.033l0.591,0.673l0.018,0.032l0.591,0.691l0.032,0.032l0.576,0.673l0.032,0.033l0.591,0.69l0.018,0.017l0.591,0.689l0.017,0.033l0.592,0.674l0.017,0.032l0.591,0.674l0.033,0.033l0.591,0.689l0.017,0.017l0.592,0.689l0.017,0.017l1.215,1.397l0,0.016l0.608,0.69l0.017,0.017l0.591,0.689l0.017,0.017l0.608,0.706l0,0l0.607,0.707l0.017,0l0.591,0.706l0.017,0l0.608,0.706l0,0l0.608,0.69l0.016,0.017l0.607,0.689l0,0.017l0.608,0.69l0,0.016l0.624,0.69l0,0l0.607,0.706l0,0l0.625,0.707l0.608,0.689l0.049,0.049l0.032,0.051l0,0l0.033,0.049l0.017,0l0.033,0.049l0,0l0.032,0.033l0.049,0.049l0.033,0.05l0,0l0.05,0.032l0,0l0.033,0.05l0.032,0.05l0,0l0.049,0.032l0,0l0.034,0.05l0,0l0.032,0.032l0,0l0.049,0.05l0,0l0.033,0.032l0,0l0.033,0.05l0,0l0.033,0.032l0,0l0.049,0.033l0,0.017l0.032,0.032l0,0l0.033,0.034l0,0l0.033,0.031l0,0l0.033,0.051l0,0l0.032,0.032l0,0l0.032,0.032l0,0l0.033,0.033l0,0.017l0.033,0.033l0.017,0l0.033,0.032l0,0l0.032,0.033l0,0l0.032,0.033l0,0l0.033,0.032l0.018,0.033l0.016,0.017l0.017,0.033l0.017,0l0.017,0.032l0.016,0l0.017,0.032l0,0l0.032,0.033l0.034,0.033l0,0l0.032,0.033l0.033,0.016l0,0.017l0.032,0.033l0,0l0.033,0.017l0.016,0.032l0,0l0.034,0.033l0.032,0.032l0.033,0.033l0,0l0.016,0.033l0.017,0l0.017,0.016l0,0l0.033,0.033l0.033,0.033l0.017,0.033l0,0l0.032,0.016l0.032,0.033l0.017,0.033l0,0l0.033,0.017l0.033,0.032l0.017,0.033l0.032,0.017l0.017,0.032l0.032,0.017l0.017,0.033l0.034,0.032l0.016,0.017l0.033,0.033l0.016,0.017l0.033,0.016l0.032,0.05l0.034,0.033l0.049,0.049l0.032,0.033l0.033,0.032l0.032,0.033l0.034,0.049l0.032,0.033l0.049,0.033l0.033,0.033l0.033,0.032l0.017,0.032l0.049,0.033l0.017,0.033l0.032,0.033l0.164,0.154z"/>
 </g>
</svg>